<svg xmlns="http://www.w3.org/2000/svg" xml:space="preserve" data-id="lg_sqFtxT3M512D75nvg9" data-version="1" viewBox="469 -0.5 562 112"><g data-padding="20"><g transform="translate(10 1.979)scale(.96435)"><rect width="201.727" height="201.727" x="566.966" y="-727.227" fill="#af47e8" rx="13" ry="13" transform="matrix(.55 0 0 .55 175.08 400)"/><rect width="323.452" height="62.15" x="205.58" y="-375.575" fill="none" rx="0" ry="0" transform="translate(409.29 381.24)"/><path fill="#76309b" d="M632.126 53.74q-4.12 0-7.37-1.98-3.24-1.98-5.11-5.44-1.87-3.47-1.87-7.81 0-4.4 2-7.84 2.01-3.44 5.45-5.45 3.44-2 7.73-2 4.34 0 7.75 2 3.41 2.01 5.42 5.48 2.01 3.46 2.06 7.81l-1.98.49q0 4.18-1.87 7.54-1.87 3.35-5.03 5.28-3.16 1.92-7.18 1.92m.83-4.51q2.97 0 5.28-1.4t3.65-3.85q1.35-2.45 1.35-5.47 0-3.08-1.35-5.53-1.34-2.45-3.65-3.85t-5.28-1.4q-2.86 0-5.23 1.4-2.36 1.4-3.71 3.85t-1.35 5.53q0 3.02 1.35 5.47t3.71 3.85q2.37 1.4 5.23 1.4m12.65 4.35q-1.1 0-1.82-.72-.71-.71-.71-1.81v-8.8l1.04-5.28 4.07 1.54v12.54q0 1.1-.74 1.81-.74.72-1.84.72m24.43.16q-4.35 0-7.76-2.01-3.41-2-5.36-5.44t-1.95-7.78q0-4.46 1.89-7.92 1.9-3.47 5.2-5.42t7.65-1.95q3.24 0 5.99 1.26 2.75 1.27 4.9 3.8.71.77.52 1.65t-1.13 1.54q-.66.49-1.54.33-.88-.17-1.54-.94-2.91-3.13-7.2-3.13-2.92 0-5.15 1.37-2.22 1.38-3.46 3.77t-1.24 5.64q0 3.08 1.29 5.5 1.3 2.42 3.61 3.82t5.28 1.4q2.03 0 3.63-.49 1.59-.5 2.86-1.6.77-.66 1.62-.71.85-.06 1.51.49.83.72.94 1.6t-.61 1.54q-3.96 3.68-9.95 3.68m32.23 0q-4.13 0-7.37-1.98-3.25-1.98-5.12-5.44-1.87-3.47-1.87-7.81 0-4.4 2.01-7.84t5.44-5.45q3.44-2 7.73-2 4.35 0 7.76 2 3.41 2.01 5.41 5.48 2.01 3.46 2.07 7.81l-1.98.49q0 4.18-1.87 7.54-1.87 3.35-5.04 5.28-3.16 1.92-7.17 1.92m.82-4.51q2.97 0 5.28-1.4t3.66-3.85 1.35-5.47q0-3.08-1.35-5.53t-3.66-3.85-5.28-1.4q-2.86 0-5.22 1.4-2.37 1.4-3.72 3.85-1.34 2.45-1.34 5.53 0 3.02 1.34 5.47 1.35 2.45 3.72 3.85 2.36 1.4 5.22 1.4m12.65 4.35q-1.1 0-1.81-.72-.72-.71-.72-1.81v-8.8l1.05-5.28 4.07 1.54v12.54q0 1.1-.75 1.81-.74.72-1.84.72m24.53.16q-4.29 0-7.73-2.01-3.43-2-5.44-5.47-2.01-3.46-2.01-7.81 0-4.34 1.87-7.78t5.12-5.45q3.24-2 7.37-2 3.41 0 6.24 1.43t4.7 3.85V13.1q0-1.16.72-1.85.71-.68 1.81-.68 1.16 0 1.87.68.72.69.72 1.85v25.46q-.06 4.29-2.07 7.76-2 3.46-5.44 5.44t-7.73 1.98m0-4.51q2.97 0 5.28-1.4t3.66-3.85 1.35-5.53-1.35-5.5-3.66-3.82-5.28-1.4q-2.86 0-5.22 1.4-2.37 1.4-3.72 3.82-1.34 2.42-1.34 5.5t1.34 5.53q1.35 2.45 3.72 3.85 2.36 1.4 5.22 1.4m39.11 4.51q-4.57 0-8.06-1.95t-5.47-5.39-1.98-7.89q0-4.51 1.87-7.95t5.17-5.39 7.64-1.95q4.24 0 7.32 1.89 3.08 1.9 4.73 5.23t1.65 7.67q0 .94-.64 1.57-.63.63-1.67.63h-22.61v-4.07h22.66l-2.25 1.6q-.06-2.92-1.16-5.23t-3.13-3.63q-2.04-1.32-4.9-1.32-3.13 0-5.42 1.43-2.28 1.43-3.49 3.91-1.21 2.47-1.21 5.61 0 3.13 1.4 5.58 1.41 2.45 3.85 3.88 2.45 1.43 5.7 1.43 1.76 0 3.65-.66 1.9-.66 3-1.54.77-.61 1.65-.64.88-.02 1.54.53.83.77.88 1.67.06.91-.77 1.57-1.87 1.49-4.65 2.45-2.77.96-5.3.96m59.95-.16q-1.1 0-1.82-.72-.71-.71-.71-1.81V35.26q0-3.63-1.85-5.55-1.84-1.93-4.75-1.93-3.08 0-5.04 2.12-1.95 2.12-1.95 5.47h-4.29q.06-3.63 1.6-6.38t4.29-4.29 6.21-1.54q3.19 0 5.64 1.43t3.82 4.15q1.38 2.73 1.38 6.52v15.79q0 1.1-.69 1.81-.69.72-1.84.72m-37.4 0q-1.1 0-1.82-.72-.71-.71-.71-1.81V26.02q0-1.15.71-1.84.72-.69 1.82-.69 1.15 0 1.84.69t.69 1.84v25.03q0 1.1-.69 1.81-.69.72-1.84.72m18.75 0q-1.1 0-1.81-.72-.72-.71-.72-1.81V35.26q0-3.63-1.84-5.55-1.84-1.93-4.76-1.93-3.08 0-5.09 2.09-2 2.09-2 5.34h-3.3q.05-3.52 1.51-6.25 1.46-2.72 3.99-4.26t5.72-1.54 5.63 1.43q2.45 1.43 3.83 4.15 1.37 2.73 1.37 6.52v15.79q0 1.1-.69 1.81-.68.72-1.84.72m33.6-.06q-1.1 0-1.85-.74-.74-.74-.74-1.84V13.15q0-1.15.74-1.87.75-.71 1.85-.71 1.15 0 1.87.71.71.72.71 1.87v37.79q0 1.1-.71 1.84-.72.74-1.87.74m48.9-.77-11.66-11.66q-.77-.77-.77-1.76t.77-1.76 1.76-.77 1.76.77l11.72 11.66q.71.83.74 1.76.03.94-.74 1.76-.83.77-1.79.77t-1.79-.77m-15.45 1.32q-4.84 0-8.86-1.62-4.01-1.62-6.9-4.59t-4.51-6.99q-1.62-4.01-1.62-8.85 0-4.79 1.62-8.8 1.62-4.02 4.51-6.99t6.9-4.59q4.02-1.62 8.86-1.62 4.78 0 8.8 1.62 4.01 1.62 6.93 4.59 2.91 2.97 4.53 6.99 1.63 4.01 1.63 8.8 0 4.84-1.63 8.85-1.62 4.02-4.53 6.99-2.92 2.97-6.93 4.59-4.02 1.62-8.8 1.62m0-4.73q3.68 0 6.76-1.32t5.36-3.66q2.29-2.33 3.52-5.5 1.24-3.16 1.24-6.84 0-3.69-1.24-6.82-1.23-3.14-3.52-5.5-2.28-2.37-5.36-3.66t-6.76-1.29q-3.69 0-6.77 1.29t-5.33 3.66q-2.26 2.36-3.52 5.5-1.27 3.13-1.27 6.82 0 3.68 1.27 6.84 1.26 3.17 3.52 5.5 2.25 2.34 5.33 3.66t6.77 1.32"/><rect width="432.933" height="28.25" x="150.839" y="-358.625" fill="none" rx="0" ry="0" transform="translate(464.03 428.9)"/><path fill="#76309b" d="M622.876 92q-1.6 0-2.97-.46-1.36-.46-2.36-1.31t-1.52-1.98q-.2-.4-.02-.74.19-.33.64-.46.35-.1.69.08.34.17.51.52.38.73 1.1 1.3.73.58 1.73.89t2.2.31q1.32 0 2.35-.44 1.02-.43 1.61-1.27t.59-2.04q0-1.52-1.13-2.62-1.12-1.1-3.52-1.4-2.93-.35-4.58-1.82-1.65-1.46-1.65-3.58 0-1.53.81-2.65.82-1.13 2.24-1.74 1.43-.61 3.28-.61 1.37 0 2.5.43 1.12.44 1.96 1.15.84.72 1.36 1.57.25.4.16.77-.08.38-.43.58-.38.17-.77.05-.38-.13-.58-.48-.38-.57-.94-1.09-.56-.51-1.36-.81t-1.93-.32q-1.97 0-3.17.83-1.2.84-1.2 2.44 0 .85.45 1.56.45.72 1.48 1.23 1.04.51 2.79.76 3.13.45 4.64 1.91 1.51 1.47 1.51 3.82 0 1.35-.49 2.4-.48 1.05-1.37 1.76t-2.08 1.09q-1.18.37-2.53.37m28.77-.25q-.42 0-.7-.26-.27-.26-.27-.69v-7.2q0-1.77-.93-2.81-.92-1.04-2.37-1.04-1.55 0-2.54 1.04t-.96 2.76h-1.73q.03-1.67.73-2.95.7-1.27 1.92-1.97 1.23-.7 2.78-.7 1.47 0 2.61.7t1.77 1.97q.64 1.28.64 3v7.2q0 .43-.26.69t-.69.26m-17.5 0q-.45 0-.71-.26t-.26-.69V79.05q0-.42.26-.7.26-.27.71-.27.43 0 .69.27.26.28.26.7V90.8q0 .43-.26.69t-.69.26m8.78 0q-.43 0-.7-.26-.28-.26-.28-.69v-7.2q0-1.77-.92-2.81-.93-1.04-2.38-1.04-1.55 0-2.55 1.01-1 1.02-1 2.64h-1.37q.05-1.6.71-2.84.66-1.23 1.81-1.93t2.6-.7q1.48 0 2.61.7 1.14.7 1.78 1.97.64 1.28.64 3v7.2q0 .43-.27.69-.26.26-.68.26m19.95.14q-1.93 0-3.45-.92-1.53-.91-2.42-2.48-.88-1.58-.88-3.55 0-2 .91-3.58.91-1.57 2.49-2.49 1.57-.91 3.55-.91 1.97 0 3.53.91 1.57.92 2.48 2.49.91 1.58.94 3.58l-.78.6q0 1.8-.84 3.23-.83 1.44-2.27 2.28t-3.26.84m.2-1.75q1.45 0 2.58-.68 1.14-.67 1.8-1.86.67-1.19.67-2.66 0-1.5-.67-2.68-.66-1.17-1.8-1.86-1.13-.69-2.58-.69-1.43 0-2.58.69t-1.82 1.86q-.68 1.18-.68 2.68 0 1.47.68 2.66.67 1.19 1.82 1.86 1.15.68 2.58.68m5.97 1.62q-.42 0-.7-.26-.27-.26-.27-.69v-4.27l.47-1.98 1.48.38v5.87q0 .43-.28.69-.27.26-.7.26m6.63-8.43h-1.1q.07-1.55.81-2.78.74-1.22 1.92-1.92 1.19-.7 2.64-.7 1.15 0 1.78.32.62.33.47.95-.1.38-.34.5-.23.13-.57.1-.34-.02-.76-.05-1.4-.12-2.49.29t-1.73 1.26q-.63.85-.63 2.03m-.95 8.42q-.45 0-.7-.25t-.25-.7V79.03q0-.45.25-.7t.7-.25.7.25.25.7V90.8q0 .45-.25.7t-.7.25m16.37 0h-.52q-1.33 0-2.37-.62-1.03-.63-1.63-1.72-.6-1.08-.6-2.48V74.7q0-.42.26-.7.26-.27.69-.27.42 0 .7.27.27.28.27.7v12.23q0 1.27.75 2.08.75.82 1.93.82h.67q.4 0 .65.27.25.28.25.7 0 .43-.3.69t-.75.26m-.37-11.5h-6.38q-.37 0-.62-.24-.25-.23-.25-.58 0-.38.25-.62.25-.23.62-.23h6.38q.37 0 .62.23.25.24.25.62 0 .35-.25.58-.25.24-.62.24m10.75 11.64q-2.03 0-3.59-.89t-2.45-2.46q-.89-1.58-.89-3.6 0-2.05.84-3.62.84-1.56 2.31-2.46 1.48-.9 3.4-.9 1.9 0 3.31.86 1.42.87 2.19 2.39.78 1.53.78 3.48 0 .4-.25.63-.25.24-.65.24h-10.63v-1.6h10.83l-1.08.78q.03-1.45-.52-2.6t-1.57-1.8q-1.01-.65-2.41-.65-1.42 0-2.5.67-1.07.68-1.66 1.86-.59 1.19-.59 2.72 0 1.52.66 2.7.67 1.17 1.82 1.85 1.15.67 2.65.67.9 0 1.81-.31t1.46-.79q.28-.22.63-.24.35-.01.6.19.32.3.33.65.02.35-.28.6-.83.7-2.1 1.16-1.28.47-2.45.47m11.05-8.56h-1.1q.07-1.55.81-2.78.74-1.22 1.92-1.92 1.19-.7 2.64-.7 1.15 0 1.78.32.62.33.47.95-.1.38-.34.5-.23.13-.57.1-.34-.02-.76-.05-1.4-.12-2.49.29t-1.73 1.26q-.63.85-.63 2.03m-.95 8.42q-.45 0-.7-.25t-.25-.7V79.03q0-.45.25-.7t.7-.25.7.25.25.7V90.8q0 .45-.25.7t-.7.25m23.75 0q-.4 0-.69-.29-.29-.28-.29-.68V72.23h1.95v18.55q0 .4-.27.68-.28.29-.7.29m6.92-17.75h-13.82q-.4 0-.65-.25t-.25-.62q0-.4.25-.65t.65-.25h13.82q.4 0 .65.25t.25.65q0 .37-.25.62t-.65.25m9.75 17.89q-2 0-3.57-.9-1.58-.9-2.48-2.48-.9-1.57-.9-3.57 0-2.03.9-3.6.9-1.58 2.48-2.48 1.57-.9 3.57-.9t3.56.9q1.57.9 2.47 2.48.9 1.57.92 3.6 0 2-.91 3.57-.91 1.58-2.48 2.48-1.56.9-3.56.9m0-1.75q1.45 0 2.6-.68 1.15-.67 1.8-1.85.65-1.17.65-2.67t-.65-2.69-1.8-1.86q-1.15-.68-2.6-.68t-2.6.68q-1.15.67-1.81 1.86t-.66 2.69.66 2.67q.66 1.18 1.81 1.85 1.15.68 2.6.68m16.93 1.75q-2 0-3.58-.9-1.57-.9-2.47-2.48-.9-1.57-.9-3.57 0-2.03.9-3.6.9-1.58 2.47-2.48 1.58-.9 3.58-.9t3.56.9 2.46 2.48q.9 1.57.93 3.6 0 2-.92 3.57-.91 1.58-2.47 2.48t-3.56.9m0-1.75q1.45 0 2.6-.68 1.15-.67 1.8-1.85.65-1.17.65-2.67t-.65-2.69-1.8-1.86q-1.15-.68-2.6-.68t-2.6.68q-1.15.67-1.82 1.86-.66 1.19-.66 2.69t.66 2.67q.67 1.18 1.82 1.85 1.15.68 2.6.68m13.97 1.61h-.32q-1 0-1.79-.55t-1.23-1.52q-.43-.98-.43-2.25V73.18q0-.43.26-.69t.69-.26q.42 0 .68.26.27.26.27.69v14.25q0 1.07.43 1.75.44.67 1.12.67h.62q.38 0 .6.26.23.27.23.69 0 .43-.32.69-.31.26-.81.26m8.54.14q-1.47 0-2.92-.5t-2.35-1.5q-.28-.3-.23-.68.05-.37.38-.65.35-.25.72-.2.38.05.63.33.6.7 1.58 1.07.99.38 2.19.38 1.85 0 2.68-.64.82-.64.85-1.54 0-.9-.85-1.49-.85-.58-2.8-.91-2.53-.4-3.7-1.4-1.18-1-1.18-2.37 0-1.28.68-2.13.67-.85 1.8-1.27 1.12-.43 2.47-.43 1.68 0 2.89.58 1.21.57 1.96 1.55.25.32.2.67t-.4.58q-.3.17-.69.11-.38-.06-.66-.36-.62-.73-1.45-1.07-.82-.33-1.9-.33-1.37 0-2.2.56-.82.56-.82 1.41 0 .58.31 1 .31.43 1.07.75.77.33 2.14.55 1.88.3 2.96.89 1.09.59 1.55 1.37.47.79.47 1.72 0 1.17-.69 2.06t-1.9 1.39-2.79.5m8.49 3.91q-.25 0-.39-.14-.14-.13-.14-.36 0-.37.23-.69.22-.31.46-.66t.24-.85q0-.45-.18-.75-.17-.3-.41-.54-.24-.23-.41-.52-.18-.29-.18-.71 0-.63.41-1 .42-.38 1.04-.38.75 0 1.23.59.47.59.47 1.64 0 .7-.2 1.47-.2.78-.55 1.44t-.77 1.06q-.43.4-.85.4m19.45-3.8q-1.6 0-2.97-.46-1.36-.46-2.36-1.31t-1.52-1.98q-.2-.4-.02-.74.19-.33.64-.46.35-.1.69.08.34.17.51.52.38.73 1.1 1.3.73.58 1.73.89t2.2.31q1.32 0 2.35-.44 1.02-.43 1.61-1.27t.59-2.04q0-1.52-1.13-2.62-1.12-1.1-3.52-1.4-2.93-.35-4.58-1.82-1.65-1.46-1.65-3.58 0-1.53.81-2.65.82-1.13 2.24-1.74 1.43-.61 3.28-.61 1.37 0 2.5.43 1.12.44 1.96 1.15.84.72 1.36 1.57.25.4.16.77-.08.38-.43.58-.38.17-.77.05-.38-.13-.58-.48-.38-.57-.94-1.09-.56-.51-1.36-.81t-1.93-.32q-1.97 0-3.17.83-1.2.84-1.2 2.44 0 .85.45 1.56.45.72 1.48 1.23 1.04.51 2.79.76 3.13.45 4.64 1.91 1.51 1.47 1.51 3.82 0 1.35-.49 2.4-.48 1.05-1.37 1.76t-2.08 1.09q-1.18.37-2.53.37m16.16-.25h-.52q-1.33 0-2.37-.62-1.03-.63-1.63-1.72-.6-1.08-.6-2.48V74.7q0-.42.26-.7.26-.27.69-.27.42 0 .7.27.27.28.27.7v12.23q0 1.27.75 2.08.75.82 1.93.82h.67q.4 0 .65.27.25.28.25.7 0 .43-.3.69t-.75.26m-.37-11.5h-6.38q-.37 0-.62-.24-.25-.23-.25-.58 0-.38.25-.62.25-.23.62-.23h6.38q.37 0 .62.23.25.24.25.62 0 .35-.25.58-.25.24-.62.24m6.46 3.08h-1.1q.07-1.55.81-2.78.74-1.22 1.92-1.92 1.19-.7 2.64-.7 1.15 0 1.78.32.62.33.47.95-.1.38-.34.5-.23.13-.57.1-.34-.02-.76-.05-1.4-.12-2.49.29t-1.73 1.26q-.63.85-.63 2.03m-.95 8.42q-.45 0-.7-.25t-.25-.7V79.03q0-.45.25-.7t.7-.25.7.25.25.7V90.8q0 .45-.25.7t-.7.25m16.72.14q-2 0-3.57-.9-1.58-.9-2.48-2.48-.9-1.57-.9-3.57 0-2.03.9-3.6.9-1.58 2.48-2.48 1.57-.9 3.57-.9t3.56.9q1.57.9 2.47 2.48.9 1.57.92 3.6 0 2-.91 3.57-.91 1.58-2.48 2.48-1.56.9-3.56.9m0-1.75q1.45 0 2.6-.68 1.15-.67 1.8-1.85.65-1.17.65-2.67t-.65-2.69-1.8-1.86q-1.15-.68-2.6-.68t-2.6.68q-1.15.67-1.81 1.86t-.66 2.69.66 2.67q.66 1.18 1.81 1.85 1.15.68 2.6.68m22.43 1.61q-.43 0-.7-.27-.28-.28-.28-.68v-6.5q0-1.55-.59-2.55-.58-1-1.6-1.5-1.01-.5-2.28-.5-1.23 0-2.22.48-.98.47-1.56 1.3-.57.82-.57 1.87h-1.38q.05-1.57.85-2.81t2.13-1.95q1.32-.71 2.95-.71 1.77 0 3.17.73 1.4.74 2.21 2.17.82 1.42.82 3.47v6.5q0 .4-.28.68-.27.27-.67.27m-10.75 0q-.45 0-.72-.26-.26-.26-.26-.69V79.05q0-.45.26-.71.27-.26.72-.26.42 0 .68.26.27.26.27.71V90.8q0 .43-.27.69-.26.26-.68.26m21.97.13q-1.97 0-3.5-.89-1.52-.89-2.39-2.46-.86-1.58-.86-3.6 0-2.05.9-3.63.9-1.57 2.48-2.46 1.57-.89 3.57-.89 2.03 0 3.59.89t2.45 2.46q.89 1.58.91 3.63l-1.12.6q0 1.85-.78 3.28-.77 1.44-2.14 2.25-1.36.82-3.11.82m.25 5.27q-1.97 0-3.47-.74-1.5-.73-2.48-2.01-.27-.3-.24-.65.04-.35.37-.57.32-.23.72-.15.4.07.63.37.72.9 1.86 1.45t2.64.55q1.4 0 2.52-.67 1.13-.68 1.79-1.9.66-1.23.66-2.88v-3.8l.73-1.45 1.17.23v5.1q0 2.02-.9 3.63-.9 1.62-2.45 2.55-1.55.94-3.55.94m-.05-7.02q1.48 0 2.61-.67 1.14-.66 1.79-1.83.65-1.18.65-2.7 0-1.53-.65-2.72-.65-1.18-1.79-1.85-1.13-.66-2.61-.66-1.47 0-2.62.66-1.15.67-1.8 1.85-.65 1.19-.65 2.72 0 1.52.65 2.7.65 1.17 1.8 1.83 1.15.67 2.62.67m16.9 1.76q-2.02 0-3.59-.89-1.56-.89-2.45-2.46-.88-1.58-.88-3.6 0-2.05.83-3.62.84-1.56 2.32-2.46 1.47-.9 3.4-.9 1.9 0 3.31.86 1.41.87 2.19 2.39.77 1.53.77 3.48 0 .4-.25.63-.25.24-.65.24h-10.62v-1.6h10.82l-1.07.78q.02-1.45-.53-2.6t-1.56-1.8-2.41-.65q-1.43 0-2.5.67-1.08.68-1.67 1.86-.58 1.19-.58 2.72 0 1.52.66 2.7.66 1.17 1.81 1.85 1.15.67 2.65.67.9 0 1.81-.31.92-.31 1.47-.79.27-.22.62-.24.35-.01.6.19.33.3.34.65t-.29.6q-.82.7-2.1 1.16-1.27.47-2.45.47m11.04-8.56h-1.1q.08-1.55.81-2.78.74-1.22 1.93-1.92t2.64-.7q1.15 0 1.77.32.63.33.48.95-.1.38-.34.5-.24.13-.58.1-.33-.02-.76-.05-1.4-.12-2.49.29-1.08.41-1.72 1.26t-.64 2.03m-.95 8.42q-.45 0-.7-.25t-.25-.7V79.03q0-.45.25-.7t.7-.25.7.25.25.7V90.8q0 .45-.25.7t-.7.25m24.09.25q-1.6 0-2.97-.46-1.36-.46-2.36-1.31t-1.52-1.98q-.2-.4-.02-.74.19-.33.64-.46.35-.1.69.08.34.17.51.52.38.73 1.1 1.3.73.58 1.73.89t2.2.31q1.32 0 2.35-.44 1.02-.43 1.61-1.27t.59-2.04q0-1.52-1.13-2.62-1.12-1.1-3.52-1.4-2.93-.35-4.58-1.82-1.65-1.46-1.65-3.58 0-1.53.81-2.65.82-1.13 2.24-1.74 1.43-.61 3.28-.61 1.37 0 2.5.43 1.12.44 1.96 1.15.84.72 1.36 1.57.25.4.16.77-.08.38-.43.58-.38.17-.77.05-.38-.13-.58-.48-.38-.57-.94-1.09-.56-.51-1.36-.81t-1.93-.32q-1.97 0-3.17.83-1.2.84-1.2 2.44 0 .85.45 1.56.45.72 1.48 1.23 1.04.51 2.79.76 3.13.45 4.64 1.91 1.51 1.47 1.51 3.82 0 1.35-.49 2.4-.48 1.05-1.37 1.76t-2.08 1.09q-1.18.37-2.53.37m16.39-.11q-1.98 0-3.52-.92-1.53-.91-2.42-2.48-.89-1.58-.89-3.55 0-2 .85-3.58.85-1.57 2.33-2.49 1.47-.91 3.4-.91 1.52 0 2.81.6t2.26 1.8q.28.3.2.64-.07.34-.42.59-.28.2-.62.13-.33-.06-.58-.36-1.45-1.65-3.65-1.65-1.4 0-2.47.68-1.06.67-1.65 1.85-.58 1.17-.58 2.7 0 1.5.62 2.67.63 1.18 1.75 1.85 1.13.68 2.58.68.97 0 1.78-.27.82-.26 1.44-.81.3-.25.63-.27.32-.03.6.2.3.27.33.62.04.35-.23.6-1.83 1.68-4.55 1.68m9.76-5.71q-.45 0-.72-.28-.26-.27-.26-.7v-12q0-.45.26-.71.27-.26.72-.26.42 0 .68.26.27.26.27.71v12q0 .43-.27.7-.26.28-.68.28m10.75 5.57q-.43 0-.7-.27-.28-.28-.28-.68v-6.5q0-1.55-.59-2.55-.58-1-1.6-1.5-1.01-.5-2.28-.5-1.23 0-2.22.48-.98.47-1.56 1.3-.57.82-.57 1.87h-1.38q.05-1.57.85-2.81t2.13-1.95q1.32-.71 2.95-.71 1.77 0 3.17.73 1.4.74 2.21 2.17.82 1.42.82 3.47v6.5q0 .4-.28.68-.27.27-.67.27m-10.75 0q-.45 0-.72-.26-.26-.26-.26-.69V79.05q0-.45.26-.71.27-.26.72-.26.42 0 .68.26.27.26.27.71V90.8q0 .43-.27.69-.26.26-.68.26m22.17.14q-2 0-3.57-.9-1.58-.9-2.48-2.48-.9-1.57-.9-3.57 0-2.03.9-3.6.9-1.58 2.48-2.48 1.57-.9 3.57-.9t3.56.9q1.57.9 2.47 2.48.9 1.57.92 3.6 0 2-.91 3.57-.91 1.58-2.48 2.48-1.56.9-3.56.9m0-1.75q1.45 0 2.6-.68 1.15-.67 1.8-1.85.65-1.17.65-2.67t-.65-2.69-1.8-1.86q-1.15-.68-2.6-.68t-2.6.68q-1.15.67-1.81 1.86t-.66 2.69.66 2.67q.66 1.18 1.81 1.85 1.15.68 2.6.68m16.93 1.75q-2 0-3.58-.9-1.57-.9-2.47-2.48-.9-1.57-.9-3.57 0-2.03.9-3.6.9-1.58 2.47-2.48 1.58-.9 3.58-.9t3.56.9 2.46 2.48q.9 1.57.93 3.6 0 2-.92 3.57-.91 1.58-2.47 2.48t-3.56.9m0-1.75q1.45 0 2.6-.68 1.15-.67 1.8-1.85.65-1.17.65-2.67t-.65-2.69-1.8-1.86q-1.15-.68-2.6-.68t-2.6.68q-1.15.67-1.82 1.86-.66 1.19-.66 2.69t.66 2.67q.67 1.18 1.82 1.85 1.15.68 2.6.68m13.97 1.61h-.32q-1 0-1.79-.55t-1.23-1.52q-.43-.98-.43-2.25V73.18q0-.43.26-.69t.69-.26q.42 0 .68.26.27.26.27.69v14.25q0 1.07.43 1.75.44.67 1.12.67h.62q.38 0 .6.26.23.27.23.69 0 .43-.32.69-.31.26-.81.26m8.54.14q-1.47 0-2.92-.5t-2.35-1.5q-.28-.3-.23-.68.05-.37.38-.65.35-.25.72-.2.38.05.63.33.6.7 1.58 1.07.99.38 2.19.38 1.85 0 2.68-.64.82-.64.85-1.54 0-.9-.85-1.49-.85-.58-2.8-.91-2.53-.4-3.7-1.4-1.18-1-1.18-2.37 0-1.28.68-2.13.67-.85 1.8-1.27 1.12-.43 2.47-.43 1.68 0 2.89.58 1.21.57 1.96 1.55.25.32.2.67t-.4.58q-.3.17-.69.11-.38-.06-.66-.36-.62-.73-1.45-1.07-.82-.33-1.9-.33-1.37 0-2.2.56-.82.56-.82 1.41 0 .58.31 1 .31.43 1.07.75.77.33 2.14.55 1.88.3 2.96.89 1.09.59 1.55 1.37.47.79.47 1.72 0 1.17-.69 2.06t-1.9 1.39-2.79.5m9.16.26q-.6 0-1.02-.42-.43-.43-.43-1.03 0-.62.44-1.05.44-.42 1.01-.42.6 0 1.03.43.42.44.42 1.04 0 .58-.41 1.01-.41.44-1.04.44"/><path fill="#fff" d="M539.238 24.151a2.2 2.2 0 0 0-.526.146l-46.446 17.92a2.24 2.24 0 0 0 0 4.155l16.688 6.44v17.752a2.24 2.24 0 0 0 1.377 2.06l28.314 11.828a2.24 2.24 0 0 0 1.747 0l28.314-11.827a2.24 2.24 0 0 0 1.366-2.06V52.856l7.246-2.8a2.255 2.255 0 0 0-1.612-4.212l-36.188 13.978-40.252-15.512 40.252-15.534 44.207 17.035v25.693a7.95 7.95 0 0 0-5.667 7.526c0 4.3 3.561 7.84 7.907 7.84a7.95 7.95 0 0 0 7.952-7.84 7.95 7.95 0 0 0-5.712-7.526V44.31a2.24 2.24 0 0 0-1.434-2.094l-46.446-17.92a2.24 2.24 0 0 0-1.087-.146m-25.793 30.386 25.267 9.755a2.24 2.24 0 0 0 1.613 0l25.267-9.722v14.482l-26.074 10.92-26.073-10.954Zm72.52 21.1a3.394 3.394 0 1 1 0 6.788 3.394 3.394 0 0 1 0-6.788"/></g><path fill="transparent" stroke="transparent" d="M469.5 0h561v111h-561z"/></g></svg>